<svg xmlns="http://www.w3.org/2000/svg" width="20.138" height="16" viewBox="0 0 20.138 16"><defs><style>.a{fill:#fff;}</style></defs><g transform="translate(-473.702 -190.258)"><path class="a" d="M5.091,9.784h0L8.924,5.932A.737.737,0,0,0,7.88,4.893L5.307,7.478V-5.263A.737.737,0,0,0,4.57-6a.737.737,0,0,0-.737.737V7.478L1.26,4.893A.737.737,0,0,0,.215,5.932L4.047,9.783h0a.738.738,0,0,0,1.043,0" transform="translate(473.702 196.258)"/><path class="a" d="M5.091-5.784h0L8.924-1.932a.737.737,0,0,1,0,1.042.737.737,0,0,1-1.042,0L5.307-3.478V9.263a.737.737,0,1,1-1.474,0V-3.478L1.26-.893a.737.737,0,0,1-1.042,0,.737.737,0,0,1,0-1.042L4.047-5.783h0a.738.738,0,0,1,1.043,0" transform="translate(484.702 196.258)"/></g></svg>