<?xml version="1.0" encoding="UTF-8" standalone="no"?>
<!-- Generator: Adobe Illustrator 16.0.0, SVG Export Plug-In . SVG Version: 6.00 Build 0) -->
<svg xmlns:dc="http://purl.org/dc/elements/1.1/" xmlns:cc="http://creativecommons.org/ns#" xmlns:rdf="http://www.w3.org/1999/02/22-rdf-syntax-ns#" xmlns:svg="http://www.w3.org/2000/svg" xmlns="http://www.w3.org/2000/svg" xmlns:sodipodi="http://sodipodi.sourceforge.net/DTD/sodipodi-0.dtd" xmlns:inkscape="http://www.inkscape.org/namespaces/inkscape" version="1.1" id="Layer_1" x="0px" y="0px" width="192.756px" height="192.756px" viewBox="0 0 192.756 192.756" style="enable-background:new 0 0 192.756 192.756;" xml:space="preserve" inkscape:version="0.91 r13725" sodipodi:docname="02.svg"><metadata id="metadata15"><rdf:RDF><cc:Work rdf:about=""><dc:format>image/svg+xml</dc:format><dc:type rdf:resource="http://purl.org/dc/dcmitype/StillImage"/><dc:title/></cc:Work></rdf:RDF></metadata><defs id="defs13"/><sodipodi:namedview pagecolor="#ffffff" bordercolor="#666666" borderopacity="1" objecttolerance="10" gridtolerance="10" guidetolerance="10" inkscape:pageopacity="0" inkscape:pageshadow="2" inkscape:window-width="1098" inkscape:window-height="848" id="namedview11" showgrid="false" inkscape:zoom="1.2243458" inkscape:cx="-33.895652" inkscape:cy="96.377998" inkscape:window-x="0" inkscape:window-y="0" inkscape:window-maximized="0" inkscape:current-layer="g3"/><g id="g3"><path style="fill-rule:evenodd;clip-rule:evenodd;fill:#FFFFFF;" d="M29.841,31.977C17.387,44.786,11.338,61.508,11.338,81.435 c0,19.214,6.405,35.226,18.858,48.745c12.809,13.521,28.821,20.281,48.391,20.281c19.568,0,35.58-6.76,48.033-20.281 c12.453-13.52,18.859-29.531,18.859-48.745c0-19.926-6.049-36.649-18.502-49.458c-12.455-12.809-28.822-19.214-48.391-19.214 C58.662,12.763,42.295,19.167,29.841,31.977L29.841,31.977z M47.275,114.881c-6.76-9.252-9.962-20.281-9.962-33.446 c0-13.165,3.557-24.551,10.674-34.159c7.828-9.963,18.146-14.944,30.6-14.944c12.453,0,22.416,4.981,30.242,14.944 c7.117,9.607,10.676,20.994,10.676,34.159c0,13.166-3.203,24.194-9.607,33.446c-7.473,10.674-18.146,16.012-31.311,16.012 C65.422,130.893,54.748,125.555,47.275,114.881L47.275,114.881z" id="path7"/><path style="fill-rule:evenodd;clip-rule:evenodd;fill:#FFFFFF;" d="M165.049,131.604c1.779,1.424,2.848,3.559,2.848,6.049 c0,4.625-3.559,10.674-10.32,18.146l-14.586,14.232v9.963h38.428v-9.252h-23.842c7.473-7.115,12.1-12.096,14.59-15.654 c4.98-6.404,7.473-12.1,7.473-17.436c0-11.387-6.051-17.08-18.146-17.08c-6.049,0-12.098,1.424-17.436,4.271l1.066,9.607 c4.627-3.203,9.252-4.627,13.166-4.627C161.135,129.824,163.271,130.535,165.049,131.604L165.049,131.604z" id="path9"/></g></svg>