<svg xmlns="http://www.w3.org/2000/svg" viewBox="0 0 88.7 32.8"><defs><style>.a{fill:#253754;}</style></defs><title>Untitled-1</title><path class="a" d="M18.6 19a6.8 6.8 0 1 0 6.8 7 6.8 6.8 0 0 0-6.8-7zm0 11.8a4.8 4.8 0 1 1 4.8-4.8 4.8 4.8 0 0 1-4.8 4.8z"/><path class="a" d="M15 24.3a2.5 2.5 0 0 1 1-1.2l1.3 1.8s.2.3-.3.3zM18 24.5l-1.3-2A2.7 2.7 0 0 1 18 22l.3 2.4H18zM19.2 24.3v-2.5a2 2 0 0 1 1.4.4l-1 2s-.3.3-.4 0zM20.2 25l1.5-2a3.3 3.3 0 0 1 1 1l-2.3 1.2s-.4.3-.2-.2zM20.6 26l2.5-.7s.4 1 0 1.4l-2.3-.4s-.4-.2 0-.3zM20.3 27l2.3.8s0 1.2-1 1.4l-1.4-1.7s-.3-.5 0-.4zM19.5 27.8l1.5 2s-.8 1-1.6.5l-.2-2.4s0-.3.3-.2zM18.5 28v2.4A2 2 0 0 1 17 30l1-2s0-.2.5 0zM17.5 27.4l-1.5 2s-1-.4-.8-1.2l2-1a.7.7 0 0 1 .3.2zM17 26.4l-2.5.7a1.7 1.7 0 0 1 0-1.4l2.4.3s.3.2 0 .4zM75.6 19a6.8 6.8 0 1 0 6.8 6.8 6.8 6.8 0 0 0-6.8-6.8zm0 11.7a4.8 4.8 0 1 1 4.8-4.8 4.8 4.8 0 0 1-4.8 4.7z"/><path class="a" d="M72 24.2a2.5 2.5 0 0 1 1-1.2l1.3 1.7s.2.3-.3.3zM75 24.4l-1.3-2A2.6 2.6 0 0 1 75 22l.3 2.3H75zM76.2 24.2v-2.5a2 2 0 0 1 1.4.4l-1 2.2s-.3.2-.4 0zM77.2 25l1.5-2a3.3 3.3 0 0 1 1 1l-2.3 1s-.3.4-.2 0zM77.6 26L80 25s.4 1 0 1.4l-2.3-.4s-.4-.2 0-.3zM77.4 27l2.3.7s0 1.2-1 1.4l-1.4-1.6s-.3-.5 0-.4zM76.6 27.7l1.5 2s-.7 1-1.5.5l-.2-2.3s0-.4.3-.3zM75.5 28v2.3A2 2 0 0 1 74 30l1-2s0-.3.5 0zM74.5 27.3l-1.5 2s-1-.4-.8-1.2l2-1a.7.7 0 0 1 .3.3zM74 26.3l-2.4.7a1.7 1.7 0 0 1 0-1.5l2.4.3s.3.3 0 .5z"/><path class="a" d="M88.7 21c-.3-2.4-3-4-3-4a1.7 1.7 0 0 0-.7-2 22.6 22.6 0 0 0-10.5-3c-.2-.5-1.8-1-1.8-1-5.8-4.2-15-8-15-8-3-1.3-14-1.7-14-1.7l-5-1.2H14a5 5 0 0 0-3 1.6C6.6 1.6 6 2 6 2l.8 2a20.6 20.6 0 0 0-5 6C0 12 1.4 15 1.4 15c.7 3.2 0 3.6 0 3.6A2 2 0 0 0 0 20.2l.3 4A4.7 4.7 0 0 0 2 26.7c1.3.5 8.7 1.8 8.7 1.8-1-9.8 7.7-9.7 7.7-9.7 9.7.2 8.4 11 8.4 11l.6-.7a43 43 0 0 0 4.4-.3l30.5-.2a37 37 0 0 0 5.5 0c0-10 8.2-9.8 8.2-9.8 9.7.8 7.8 10.5 7.8 10.5l.4-.2 1 .3a1.7 1.7 0 0 0 1.3-.7 4 4 0 0 0 2-1.4c.4-1 .2-6 .2-6zM7.3 13L6 14.4H3S2 13.8 1.4 14s-1.4-1.8.8-3.8c0 0-.4 1.4 1 1.4L7 12s1 0 .3 1zm16.4-2.6H8.3a1.8 1.8 0 0 1-1-2.3s3-3.7 4.2-4.8a6 6 0 0 1 2.5-.7L26 2zm33-6.2l7 3V9a4.2 4.2 0 0 0 0 1.8 2.2 2.2 0 0 0 0 1.5l-15-1-1-8.3s6.3.3 9 1.2zm-29.6 6.4l.5-8 17.7.3v8.4zm.7 15.3a6.8 6.8 0 0 1 2.7-1.2l34 .8 1.5 1.2zm43.6-13.6l-4.2.3L66 8l4.7 3.3s1 .6.5 1zm14 4.5l-2-.8a4 4 0 0 1-2.5-2 12 12 0 0 1 4 1c1.2 1 .4 1.7.4 1.7z"/></svg>