<svg xmlns="http://www.w3.org/2000/svg" viewBox="0 0 88.3 30.2"><defs><style>.a{fill:#253754;}</style></defs><title>Untitled-2</title><path class="a" d="M87.6 23.4v-2a2.7 2.7 0 0 0 .6-1.8c0-2-1-2.7-1-2.7a2 2 0 0 0-1.4-1.8c-1-2.5-19-5-19-5a2.3 2.3 0 0 0-1.7.2l-13.5-7A16.8 16.8 0 0 0 45.8 2a1.6 1.6 0 0 0-1-1.5 1.7 1.7 0 0 0-2 1.3L29.5 1A1.3 1.3 0 0 0 28 0a2 2 0 0 0-1.7 1.4C23 .8 8 2 8 2l-1 .4 1.5 1c-.6.4-6 5.6-6 5.6a1.7 1.7 0 0 0-1 2c-1 1.7-.3 4-.3 4a8.5 8.5 0 0 1-.3 2.4 1.3 1.3 0 0 0-.5 1.3H0c-.5.2 0 2.5 0 2.5L.6 23C2 24 10.8 25 10.8 25c.4-9.6 8.2-8.6 8.2-8.6 8.4.3 7.2 9.5 7.2 9.5H64c-.4-10.4 8-9.7 8-9.7 8 .5 7.6 9.5 7.6 9.5a41.4 41.4 0 0 0 6.7-.3 6.2 6.2 0 0 1 1.6-1.2c.5-.5-.4-1-.4-1zm-81-9.8a9.4 9.4 0 0 1-5 .6 4 4 0 0 1 .5-3s4.5.8 5 1.5.7.4-.4 1zm3.6-4.2c-1 0-.3-1-.3-1l3-3.5a4.2 4.2 0 0 1 3-1.4l9-.6-4 6.7zm11.8 0l3-5.2h1l.5 5.6zm32.7-1l2 1.3a15 15 0 0 0 0 2L42 11l-1.7-6.7s9-.3 14.4 4zM26.5 4l11.8.4 1 6.2-12.2-.8zM62 20.4l-33.8-1-.6-1L62.3 20zm18.4-4s-1-.6 0-.8 3.4-.4 5 .3a2 2 0 0 1 1.2 1.6s-4.2.6-6.2-1z"/><path class="a" d="M19 17a6.6 6.6 0 1 0 6.7 6.5A6.6 6.6 0 0 0 19 17zm0 11.3a4.7 4.7 0 1 1 4.8-4.7 4.7 4.7 0 0 1-4.7 4.7z"/><path class="a" d="M15.5 22a2.4 2.4 0 0 1 1-1.2l1.4 1.7s0 .3-.4.3zM18.6 22l-1.3-1.8a2.6 2.6 0 0 1 1.3-.5l.2 2.3s0 .2-.2 0zM19.7 22v-2.4a2 2 0 0 1 1.3.4l-1 2s-.2.2-.3 0zM20.7 22.7l1.5-2a3.3 3.3 0 0 1 1 1L21 23s-.5 0-.3-.3zM21 23.7l2.5-.7s.3 1 0 1.4L21 24s-.2-.2 0-.3zM20.8 24.7l2.2.7s0 1.2-1 1.3L20.6 25s-.2-.3.2-.3zM20 25.4l1.4 1.8s-.8 1-1.5.6l-.3-2.3s0-.2.3 0zM19 25.6V28a2 2 0 0 1-1.5-.4l1-2s0-.2.5 0zM18 25l-1.4 1.8s-1-.3-.8-1l2-1.2a.7.7 0 0 1 .3.4zM17.6 24l-2.5.7a1.6 1.6 0 0 1 0-1.5l2.5.3s.3.4 0 .5zM71.7 16.8a6.7 6.7 0 1 0 6.7 6.7 6.7 6.7 0 0 0-6.7-6.7zm0 11.5a4.8 4.8 0 1 1 4.8-4.8 4.8 4.8 0 0 1-4.8 4.8z"/><path class="a" d="M68 22a2.4 2.4 0 0 1 1-1.3l1.4 1.7s.2.3-.3.3zM71.2 22l-1.4-1.8a2.6 2.6 0 0 1 1.4-.5l.2 2.3h-.2zM72.3 22v-2.5a2 2 0 0 1 1.4.4l-1 2s-.3 0-.4 0zM73.2 22.6l1.5-2a3.3 3.3 0 0 1 1 1L73.4 23s-.4 0-.3-.4zM73.6 23.6L76 23s.3 1 0 1.3l-2.4-.4s-.3-.3 0-.4zM73.4 24.6l2.2.7s0 1.2-1 1.4L73.2 25s-.2-.4.2-.4zM72.6 25.4l1.5 1.8s-.7 1-1.5.6l-.2-2.3s0-.3.3 0zM71.6 25.6V28a2 2 0 0 1-1.6-.4l1-2s.2-.2.6 0zM70.6 25L69 26.8s-1-.3-.7-1l2-1.2a.7.7 0 0 1 .3.4zM70 24l-2.4.7a1.6 1.6 0 0 1 0-1.5l2.4.3s.4.3 0 .5z"/></svg>