<svg xmlns="http://www.w3.org/2000/svg" viewBox="0 0 88.7 29.1"><defs><style>.a{fill:#253754;}</style></defs><title>Untitled-3</title><path class="a" d="M18.4 14.7a7.2 7.2 0 1 0 7.2 7.2 7.2 7.2 0 0 0-7.2-7.3zm0 12.3a5 5 0 1 1 5-5 5 5 0 0 1-5 5z"/><path class="a" d="M14.5 20.2a2.6 2.6 0 0 1 1-1.3l1.5 1.7s.2.3-.3.4zM18 20.4l-1.6-2a2.8 2.8 0 0 1 1.5-.7l.2 2.5s0 .2-.3.2zM19 20.2v-2.6a2.2 2.2 0 0 1 1.6.5l-1.2 2.3s-.2 0-.3 0zM20 21l1.7-2.2a3.5 3.5 0 0 1 1 1l-2.4 1.4s-.3.2-.2-.3zM20.5 22l2.6-.7s.5 1 0 1.5l-2.5-.4s-.3-.3 0-.4zM20.3 23l2.4.8s0 1.3-1 1.5l-1.5-1.8s-.3-.4 0-.4zM19.4 24l1.6 2s-1 1-1.7.6L19 24s0-.3.4 0zM18.3 24v2.6a2 2 0 0 1-1.7-.4l1-2.2s.3 0 .7 0zM17.3 23.5l-1.6 2s-1-.3-1-1.2l2.3-1a.7.7 0 0 1 .3.2zM16.8 22.4L14 23a1.8 1.8 0 0 1 0-1.5l2.7.4s.3.2 0 .4zM73.4 14.7a7.2 7.2 0 1 0 7.2 7.2 7.2 7.2 0 0 0-7.2-7.3zm0 12.3a5 5 0 1 1 5-5 5 5 0 0 1-5 5z"/><path class="a" d="M69.5 20.2a2.6 2.6 0 0 1 1-1.3l1.5 1.7s.2.3-.3.4zM72.8 20.4l-1.5-2a2.8 2.8 0 0 1 1.5-.7l.3 2.5s0 .2-.2.2zM74 20.2v-2.6a2.2 2.2 0 0 1 1.5.5l-1.2 2.3s-.2 0-.3 0zM75 21l1.7-2.2a3.5 3.5 0 0 1 1 1l-2.4 1.4s-.4.2-.2-.3zM75.5 22l2.6-.7s.5 1 0 1.5l-2.5-.4s-.3-.3 0-.4zM75.2 23l2.4.8s0 1.3-1 1.5L75 23.5s-.2-.4.2-.4zM74.4 24l1.6 2s-1 1-1.7.6L74 24s0-.3.4 0zM73.3 24v2.6a2 2 0 0 1-1.7-.4l1-2.2s.3 0 .7 0zM72.3 23.5l-1.6 2s-1-.3-1-1.2l2.3-1a.7.7 0 0 1 .3.2zM71.8 22.4L69 23a1.8 1.8 0 0 1 0-1.5l2.7.4s.3.2 0 .4z"/><path class="a" d="M88.2 21.6c1.3-5-1.3-7.6-1.3-7.6-1-4.2-21.6-5.6-21.6-5.6L54.7 2.6a41.8 41.8 0 0 0-7-2.4c-4.2-.5-20.4.2-20.4.2a10.7 10.7 0 0 0-3 .8L10.7 6.5 2 7.2l-.3 2c-1 1-.4 4-.4 4L0 15.4l-.2 4c-.2 2 1.8 3 1.8 3l9.3 1.3c-1.4-9 7-9.7 7-9.7 8.6.5 7.6 10.5 7.6 10.5h39.8c-.7-9.8 7.4-10.2 7.4-10.2 9.3-.3 7.8 10 7.8 10H87l1.3-.5c.8-.6 0-2.2 0-2.2zM7.6 10l-2 2.3H2c-.7-.3-.3-1.5-.3-1.5A3.7 3.7 0 0 1 2.5 9h4.7c1 0 .3 1 .3 1zm42-8s5.4 2 8 4a5.4 5.4 0 0 0 0 2.3L42.4 8 42 1.5s5-.4 7.4.6zm-29 5.4S26.8 2 30 1.8l9.4-.3.2 6zm42 11.6l-32.7-1-.3-.6 32.8.8zm24.2 2.5l-2 .3.7-1.7h2zM83 15.7c-2-.3-2.5-3.2-2.5-3.2h3.7c2.4.5 3.4 3.4 3.4 3.4z"/></svg>