<svg xmlns="http://www.w3.org/2000/svg" viewBox="0 0 88.6 36.8"><defs><style>.a{fill:#253754;}</style></defs><title>Untitled-4</title><path class="a" d="M88.5 23a2.5 2.5 0 0 0-1-2.2 27.2 27.2 0 0 1-1.6-3.3 7.5 7.5 0 0 0-2-2.4L76.7 12H76l-.6-.7h-1.2L61.5 2a13.2 13.2 0 0 0-4-1.4C33-1 6.4 1 6.4 1c-1.8.2-2 1-2 1-1.3 2.7-2.4 11-2.4 11-.4 2-.3 8.4-.3 8.4l-.3 1 .2 3.8L0 28l.3 1.7c1.3 1 9 1.3 9 1.3-.2-9 7.6-8.7 7.6-8.7 8 0 8 8.7 8 8.7h41c-.7-8.8 7.8-9.6 7.8-9.6 9.3.7 8.3 9.2 8.3 9.2 2 .3 5-1 5-1a2 2 0 0 0 1-1.3 12.5 12.5 0 0 0 .5-5.4zM3.8 21h-2l.2-5.4h1.8zm19.7-9H10s-1-.2-1-.6A31.7 31.7 0 0 1 10 4s0-.5.7-.6L23.5 3s.8 0 .8.7V11a.7.7 0 0 1-.8 1zM28 3.5a1 1 0 0 1 .6-.6h16.7s.6 0 .7.7v7.5a1 1 0 0 1-1 1L28.5 12s-.7-.2-.8-.7zM64.4 28h-39v-.8h39.7zM65 9a17 17 0 0 0 0 3l.5.3-1.2.8-13.6-.3-1-10s-.2-.2.4-.3 7.6.2 9 .7a43 43 0 0 1 7 5s-.8 0-1 1zM84.2 20l-3-.2-.3-3s3.7 0 4-.2 1 2 1.4 3z"/><path class="a" d="M16.8 22.7a7 7 0 1 0 7 7 7 7 0 0 0-7-7zm0 12a5 5 0 1 1 5-5 5 5 0 0 1-5 5z"/><path class="a" d="M13 28a2.6 2.6 0 0 1 1-1.2l1.4 1.8s.2.3-.3.4zM16.2 28.2l-1.4-2a2.7 2.7 0 0 1 1.4-.6l.3 2.5s0 .3-.3.2zM17.4 28v-2.5a2 2 0 0 1 1.4.5l-1.2 2.2s0 0-.2 0zM18.4 28.8l1.6-2a3.5 3.5 0 0 1 1 1l-2.4 1.3s-.3.2-.2-.2zM18.8 30l2.6-.8s.4 1-.2 1.5l-2.4-.4s-.3-.3 0-.4zM18.6 31l2.4.6s0 1.3-1 1.4l-1.5-1.8s-.4-.3 0-.3zM17.7 31.7l1.5 2s-1 1-1.6.6l-.2-2.5s0-.3.3 0zM16.7 32v2.4A2 2 0 0 1 15 34l1.2-2s0-.3.5 0zM15.6 31.3l-1.6 2s-1-.4-1-1.3l2.2-1a.7.7 0 0 1 .4.3zM15 30.2l-2.5.7a1.7 1.7 0 0 1 0-1.7l2.5.4s.4.4 0 .5zM74 22a7 7 0 1 0 7.2 7 7 7 0 0 0-7-7zm0 12a5 5 0 1 1 5-5 5 5 0 0 1-5 5z"/><path class="a" d="M70.2 27.4a2.6 2.6 0 0 1 1-1.3l1.5 2s.2.2-.3.3zM73.5 27.5l-1.4-2a2.7 2.7 0 0 1 1.5-.6l.3 2.4s0 .2-.3 0zM74.7 27.4v-2.6a2 2 0 0 1 1.4.5l-1 2.2s-.2 0-.3 0zM75.7 28l1.6-2a3.5 3.5 0 0 1 1 1.2l-2.4 1.2s-.5.2-.3-.3zM76 29.2l2.7-.7s.4 1-.2 1.5l-2.4-.4s-.2-.3 0-.4zM75.8 30.3l2.4.7s0 1.3-1 1.4l-1.5-1.8s-.3-.4 0-.3zM75 31l1.5 2s-1 1-1.6.6l-.3-2.5s0 0 .3 0zM74 31.2v2.5a2 2 0 0 1-1.7-.4l1-2s.2-.3.6 0zM73 30.6l-1.7 2s-1-.4-1-1.3l2.2-1a.7.7 0 0 1 .4.3zM72.4 29.5l-2.6.7a1.7 1.7 0 0 1 0-1.6l2.5.4s.4.4 0 .5z"/></svg>