<svg xmlns="http://www.w3.org/2000/svg" width="116.8" height="116.8" viewBox="0 0 116.8 116.8" id="svg2"><defs id="defs6"><style id="style8">.cls-1 { font-size: 570.833px; fill: #fff; font-family: "Open Sans"; font-weight: 800; }</style></defs><g id="g4151"><g id="g4156" transform="translate(-118.925 -2020.254)"><circle id="path4145" cx="177.3" cy="2078.7" r="53.9" fill="none" stroke="#fff" stroke-width="9" stroke-linecap="round" stroke-linejoin="round"/></g><path id="path4352" d="M94.8 36c-2.7 1-5.6 2-8.6 2.2 3-1.8 5.4-4.7 6.6-8.2-3 1.7-6 3-9.5 3.6-2.7-3-6.6-4.7-11-4.7-8 0-14.8 6.6-14.8 14.8 0 1.2 0 2.3.4 3.4-12.5-.6-23.5-6.6-31-15.6-1 2.2-2 4.8-2 7.5 0 5.3 2.8 10 6.8 12.5-2.5 0-4.8-.7-6.8-1.8v.2c0 7 5 13 12 14.5-1.3.3-2.6.5-4 .5-1 0-2 0-2.8-.3 2 6 7.4 10.3 14 10.4-5 4-11.6 6.5-18.6 6.5-1.2 0-2.3 0-3.5-.2 6.7 4.2 14.5 6.7 23 6.7 27.4 0 42.4-22.8 42.4-42.5v-2c2.8-2 5.4-4.6 7.4-7.6z" fill="#fff"/></g></svg>